<svg width="206" height="206" viewBox="0 0 206 206" fill="none" xmlns="http://www.w3.org/2000/svg">
<path d="M93.9557 187.452L96.1573 192.087L97.545 192.197L97.8954 187.763L99.7138 187.907L98.8377 198.992L95.0096 198.689C94.1589 198.622 93.4529 198.417 92.8916 198.073C92.3197 197.728 91.9099 197.294 91.6623 196.772C91.404 196.249 91.2993 195.678 91.348 195.062C91.4052 194.339 91.67 193.696 92.1424 193.134C92.6033 192.582 93.2781 192.234 94.1669 192.091L91.7865 187.28L93.9557 187.452ZM97.4303 193.649L95.4205 193.49C94.74 193.436 94.2161 193.566 93.849 193.879C93.4712 194.192 93.2596 194.635 93.2142 195.209C93.1688 195.783 93.3037 196.243 93.6187 196.589C93.933 196.946 94.4357 197.151 95.1268 197.206L97.1366 197.365L97.4303 193.649Z" fill="#9E0A0F"/>
<path d="M77.9464 189.105C78.0206 188.782 78.1084 188.496 78.2098 188.246L84.7741 189.757C84.8801 189.059 84.7523 188.45 84.3906 187.929C84.029 187.407 83.5155 187.07 82.8503 186.917C81.894 186.697 81.1262 186.942 80.5469 187.651L78.6291 187.21C79.0708 186.479 79.6933 185.939 80.4967 185.587C81.2872 185.244 82.1866 185.188 83.1949 185.42C84.0161 185.609 84.7122 185.961 85.2833 186.476C85.8416 186.998 86.2313 187.635 86.4524 188.387C86.6606 189.146 86.663 189.968 86.4596 190.851C86.2562 191.735 85.9012 192.469 85.3946 193.052C84.8752 193.644 84.2514 194.048 83.5231 194.263C82.7845 194.476 81.9942 194.486 81.1522 194.292C80.3414 194.106 79.6597 193.763 79.107 193.263C78.5543 192.764 78.1754 192.151 77.9704 191.425C77.763 190.71 77.755 189.936 77.9464 189.105ZM79.6726 190.093C79.5323 190.75 79.6453 191.329 80.0117 191.83C80.3781 192.33 80.8992 192.658 81.5748 192.813C82.1881 192.955 82.7585 192.878 83.286 192.583C83.8112 192.299 84.1919 191.834 84.4282 191.188L79.6726 190.093Z" fill="#9E0A0F"/>
<path d="M74.1077 187.656C73.7845 188.48 73.3294 189.144 72.7426 189.647C72.1458 190.146 71.4863 190.455 70.7641 190.572C70.0281 190.696 69.3026 190.618 68.5876 190.338C67.9421 190.085 67.4317 189.735 67.0563 189.29C66.667 188.851 66.4024 188.387 66.2624 187.896L65.7951 189.088L64.0821 188.416L67.3007 180.209L69.0137 180.88L68.5347 182.102C68.9746 181.827 69.4934 181.659 70.0912 181.595C70.6889 181.532 71.3056 181.624 71.9411 181.874C72.6462 182.15 73.2216 182.582 73.6673 183.169C74.1091 183.767 74.3772 184.456 74.4716 185.238C74.5522 186.026 74.4309 186.832 74.1077 187.656ZM67.4015 184.992C67.1795 185.558 67.1059 186.096 67.1807 186.606C67.2455 187.113 67.4238 187.55 67.7155 187.916C68.0071 188.283 68.3715 188.551 68.8084 188.723C69.2453 188.894 69.6953 188.945 70.1583 188.874C70.6175 188.814 71.048 188.621 71.4499 188.298C71.8379 187.98 72.143 187.538 72.3649 186.972C72.5869 186.406 72.6674 185.865 72.6065 185.348C72.5356 184.828 72.3563 184.38 72.0685 184.003C71.7669 183.633 71.4026 183.364 70.9755 183.197C70.5386 183.025 70.0886 182.975 69.6256 183.045C69.1626 183.116 68.7351 183.315 68.3431 183.642C67.9373 183.976 67.6235 184.426 67.4015 184.992Z" fill="#9E0A0F"/>
<path d="M55.9906 187.576L61.6397 177.171L63.2427 178.041L57.5936 188.447L55.9906 187.576Z" fill="#9E0A0F"/>
<path d="M42.1434 175.4L44.2626 172.917L41.3421 170.424L42.3082 169.292L45.2288 171.786L47.4415 169.194L44.1559 166.389L45.122 165.257L49.7949 169.246L42.5645 177.716L37.8917 173.726L38.8578 172.595L42.1434 175.4Z" fill="#9E0A0F"/>
<path d="M39.4344 159.12C39.8973 159.636 40.2226 160.183 40.4102 160.76C40.5828 161.336 40.6171 161.885 40.5131 162.408C40.4011 162.938 40.1537 163.389 39.7709 163.761L38.5105 162.356C38.767 162.083 38.8838 161.742 38.8608 161.332C38.8227 160.922 38.6398 160.535 38.3122 160.169C37.9704 159.788 37.6355 159.559 37.3074 159.48C36.9642 159.401 36.6775 159.465 36.4472 159.671C36.201 159.892 36.1252 160.175 36.2197 160.52C36.3071 160.857 36.5072 161.344 36.82 161.98C37.1265 162.594 37.3551 163.112 37.5058 163.536C37.6564 163.96 37.704 164.404 37.6484 164.869C37.5858 165.327 37.34 165.748 36.9112 166.132C36.5618 166.446 36.1515 166.627 35.6805 166.677C35.2015 166.734 34.7077 166.647 34.1991 166.415C33.6834 166.176 33.2012 165.806 32.7526 165.305C32.0832 164.559 31.7361 163.788 31.7114 162.994C31.6716 162.199 31.9631 161.493 32.5858 160.877L33.8035 162.235C33.5311 162.523 33.4036 162.852 33.4212 163.223C33.4387 163.594 33.6113 163.962 33.9389 164.328C34.2593 164.685 34.5725 164.898 34.8784 164.968C35.1844 165.037 35.4485 164.973 35.6708 164.773C35.8456 164.616 35.9355 164.421 35.9407 164.187C35.9459 163.953 35.9023 163.713 35.81 163.466C35.7097 163.227 35.551 162.882 35.3338 162.432C35.0336 161.842 34.8156 161.335 34.68 160.912C34.5294 160.489 34.4814 160.052 34.5361 159.601C34.5909 159.151 34.8251 158.733 35.2389 158.348C35.6121 158.013 36.0382 157.817 36.5172 157.76C36.9962 157.703 37.49 157.791 37.9986 158.022C38.5001 158.246 38.9787 158.612 39.4344 159.12Z" fill="#9E0A0F"/>
<path d="M26.9933 155.321L30.9872 152.517C31.2579 152.327 31.4114 152.128 31.4478 151.92C31.4694 151.709 31.3729 151.451 31.1584 151.146L30.5148 150.229L31.7589 149.356L32.5863 150.534C33.0582 151.207 33.2627 151.832 33.1997 152.411C33.1367 152.989 32.7516 153.527 32.0445 154.023L28.0505 156.827L28.6481 157.678L27.4303 158.533L26.8327 157.682L25.0387 158.942L23.9814 157.436L25.7754 156.176L24.5435 154.421L25.7613 153.566L26.9933 155.321Z" fill="#9E0A0F"/>
<path d="M25.7161 148.112C24.9323 148.524 24.1539 148.728 23.3809 148.724C22.6029 148.711 21.9023 148.513 21.2792 148.129C20.6416 147.741 20.1442 147.207 19.787 146.527C19.4646 145.914 19.3071 145.316 19.3145 144.733C19.3075 144.147 19.4115 143.622 19.6265 143.16L18.4933 143.755L17.6376 142.126L25.4422 138.026L26.2979 139.655L25.1364 140.265C25.6486 140.346 26.1514 140.557 26.645 140.901C27.1385 141.244 27.544 141.717 27.8615 142.322C28.2137 142.992 28.3662 143.695 28.3189 144.431C28.2622 145.172 28.0138 145.869 27.5736 146.521C27.119 147.17 26.4998 147.7 25.7161 148.112ZM22.3885 141.709C21.8503 141.991 21.4424 142.35 21.1648 142.785C20.8823 143.211 20.7314 143.658 20.7122 144.126C20.693 144.594 20.7925 145.035 21.0107 145.451C21.229 145.866 21.5363 146.199 21.9325 146.449C22.3193 146.703 22.7706 146.84 23.2862 146.858C23.7875 146.872 24.3072 146.737 24.8455 146.455C25.3837 146.172 25.7988 145.815 26.0908 145.385C26.3778 144.945 26.5356 144.488 26.5643 144.015C26.5786 143.538 26.4791 143.096 26.2658 142.69C26.0475 142.275 25.7402 141.942 25.344 141.692C24.9477 141.443 24.4943 141.313 23.9836 141.305C23.4584 141.291 22.9268 141.426 22.3885 141.709Z" fill="#9E0A0F"/>
<path d="M16.1828 134.305L20.758 132.607C21.068 132.492 21.267 132.339 21.3551 132.147C21.4294 131.948 21.4017 131.674 21.2718 131.324L20.8822 130.274L22.3073 129.745L22.8082 131.096C23.0939 131.866 23.1328 132.522 22.925 133.066C22.7171 133.61 22.2081 134.032 21.3981 134.332L16.8229 136.03L17.1846 137.005L15.7896 137.522L15.4278 136.547L13.3727 137.31L12.7326 135.585L14.7877 134.822L14.0419 132.812L15.437 132.295L16.1828 134.305Z" fill="#9E0A0F"/>
<path d="M14.6312 118.591C14.953 118.515 15.2486 118.467 15.518 118.447L17.0644 125.003C17.7374 124.79 18.2276 124.406 18.5351 123.851C18.8426 123.296 18.918 122.687 18.7613 122.022C18.536 121.067 17.9772 120.486 17.0847 120.28L16.6329 118.365C17.4831 118.438 18.2434 118.758 18.9137 119.323C19.5712 119.88 20.0188 120.662 20.2563 121.669C20.4498 122.49 20.4419 123.27 20.2329 124.009C20.0109 124.741 19.6118 125.372 19.0356 125.903C18.4465 126.425 17.7107 126.791 16.8282 126.999C15.9458 127.207 15.1307 127.213 14.383 127.017C13.6225 126.812 12.9846 126.431 12.4695 125.873C11.9518 125.305 11.5938 124.6 11.3955 123.76C11.2044 122.95 11.2107 122.187 11.4143 121.47C11.6179 120.754 11.9999 120.143 12.5604 119.638C13.1104 119.136 13.8007 118.787 14.6312 118.591ZM14.5077 120.576C13.8561 120.741 13.3869 121.098 13.1002 121.648C12.8134 122.198 12.7496 122.81 12.9088 123.485C13.0533 124.097 13.3742 124.575 13.8716 124.918C14.3585 125.263 14.944 125.399 15.6281 125.326L14.5077 120.576Z" fill="#9E0A0F"/>
<path d="M18.1415 101.786C18.137 102.533 18.0048 103.204 17.7452 103.8C17.4748 104.395 17.0986 104.862 16.6165 105.201C16.1344 105.539 15.5734 105.706 14.9334 105.702L14.9454 103.75C15.4257 103.711 15.8215 103.527 16.1328 103.198C16.4443 102.858 16.6018 102.385 16.6056 101.777C16.6094 101.147 16.4631 100.656 16.1666 100.302C15.8595 99.948 15.4659 99.7696 14.9859 99.7666C14.6126 99.7643 14.3079 99.8745 14.0718 100.097C13.8359 100.309 13.6529 100.58 13.5228 100.91C13.3929 101.229 13.2515 101.676 13.0986 102.251C12.9021 102.975 12.7065 103.566 12.5117 104.024C12.3063 104.47 11.9946 104.852 11.5766 105.17C11.1587 105.487 10.603 105.644 9.90971 105.64C9.26972 105.636 8.71072 105.472 8.23269 105.149C7.75467 104.826 7.38943 104.376 7.13697 103.798C6.88451 103.221 6.76061 102.553 6.76526 101.796C6.77188 100.719 7.04928 99.8405 7.59746 99.1612C8.13505 98.4712 8.87339 98.0917 9.8125 98.0228L9.80012 100.039C9.39459 100.068 9.04675 100.258 8.7566 100.608C8.46644 100.959 8.31959 101.422 8.31605 101.998C8.31284 102.52 8.44355 102.948 8.70818 103.28C8.97281 103.612 9.35579 103.78 9.85711 103.783C10.1984 103.785 10.4817 103.686 10.707 103.484C10.9216 103.272 11.0939 103.007 11.2239 102.688C11.3538 102.368 11.4952 101.932 11.6479 101.378C11.8551 100.643 12.0614 100.047 12.2669 99.5899C12.4725 99.1218 12.7896 98.7291 13.2182 98.4117C13.6362 98.0836 14.1972 97.9218 14.9012 97.9261C15.4665 97.9295 15.9989 98.0875 16.4983 98.3999C16.9978 98.7016 17.4004 99.1468 17.7061 99.7353C18.0013 100.313 18.1464 100.997 18.1415 101.786Z" fill="#9E0A0F"/>
<path d="M8.78326 91.0933C8.74202 91.4213 8.59631 91.6825 8.34612 91.8769C8.09593 92.0712 7.8068 92.1477 7.47871 92.1065C7.15063 92.0652 6.88943 91.9195 6.69511 91.6693C6.5008 91.4192 6.42426 91.13 6.4655 90.8019C6.5054 90.4844 6.65045 90.2285 6.90064 90.0342C7.15083 89.8399 7.43996 89.7634 7.76805 89.8046C8.09613 89.8458 8.35733 89.9915 8.55165 90.2417C8.74596 90.4919 8.82317 90.7758 8.78326 91.0933ZM10.0539 90.3499L18.8011 91.4494L18.5736 93.2591L9.82641 92.1597L10.0539 90.3499Z" fill="#9E0A0F"/>
<path d="M12.2002 78.862C12.3709 78.19 12.6627 77.6258 13.0757 77.1694C13.4914 76.7027 14.0113 76.389 14.6354 76.2283C15.2594 76.0677 15.9592 76.0858 16.7346 76.2827L21.7746 77.5626L21.3296 79.315L16.5532 78.102C15.7881 77.9077 15.1554 77.9507 14.6551 78.2308C14.1444 78.5083 13.8051 78.9779 13.637 79.6396C13.469 80.3012 13.5419 80.881 13.8556 81.3789C14.1617 81.8638 14.6973 82.2034 15.4623 82.3977L20.2387 83.6106L19.7898 85.3785L11.245 83.2086L11.6939 81.4407L12.6709 81.6888C12.3929 81.3101 12.2122 80.8735 12.1286 80.379C12.0477 79.8743 12.0716 79.3686 12.2002 78.862Z" fill="#9E0A0F"/>
<path d="M19.1275 71.8174C18.291 71.4676 17.6279 70.9937 17.138 70.3957C16.6424 69.7837 16.3479 69.1056 16.2545 68.3613C16.1612 67.6169 16.277 66.8561 16.6022 66.0787C17.0137 65.0946 17.5895 64.3815 18.3293 63.9394C19.0635 63.4834 19.9109 63.3233 20.8715 63.4591L20.1122 65.2747C19.647 65.2536 19.2333 65.358 18.8711 65.5881C18.509 65.8182 18.225 66.1793 18.0192 66.6713C17.7312 67.3602 17.7467 68.0141 18.0659 68.6332C18.3793 69.2384 18.974 69.7241 19.8498 70.0904C20.7256 70.4566 21.4939 70.5409 22.1547 70.3433C22.8196 70.1357 23.2961 69.6875 23.5842 68.9987C23.9916 68.0245 23.8331 67.2009 23.1087 66.5279L23.868 64.7123C24.5958 65.2942 25.07 66.0128 25.2904 66.868C25.5009 67.7192 25.4046 68.627 25.0012 69.5913C24.6761 70.3688 24.2158 70.9856 23.6203 71.4418C23.015 71.8939 22.3254 72.1605 21.5516 72.2415C20.772 72.3086 19.964 72.1672 19.1275 71.8174Z" fill="#9E0A0F"/>
<path d="M28.6854 52.6478C28.9693 52.8175 29.2147 52.989 29.4217 53.1625L25.9654 58.9442C26.5971 59.2596 27.2164 59.3254 27.8234 59.1415C28.4305 58.9575 28.9091 58.5726 29.2594 57.9866C29.7629 57.1443 29.7662 56.3385 29.2692 55.5692L30.279 53.88C30.838 54.5248 31.1611 55.2835 31.2485 56.1559C31.3323 57.0137 31.1087 57.8867 30.5778 58.7748C30.1454 59.498 29.5966 60.0523 28.9314 60.4376C28.2624 60.8082 27.5365 60.9831 26.7535 60.9625C25.9668 60.9271 25.1844 60.6769 24.4062 60.2117C23.628 59.7465 23.0389 59.1831 22.639 58.5215C22.2355 57.8453 22.0432 57.1276 22.062 56.3684C22.0864 55.6001 22.3202 54.8451 22.7636 54.1035C23.1905 53.3894 23.7265 52.8461 24.3716 52.4737C25.0168 52.1013 25.7162 51.9291 26.4699 51.9572C27.2145 51.9797 27.953 52.2099 28.6854 52.6478ZM27.2141 53.9865C26.6318 53.6509 26.0463 53.5805 25.4576 53.7753C24.8689 53.9702 24.3967 54.3652 24.0409 54.9603C23.718 55.5005 23.6156 56.0668 23.7336 56.6593C23.8425 57.2464 24.168 57.7516 24.7102 58.1752L27.2141 53.9865Z" fill="#9E0A0F"/>
<path d="M39.0295 43.2825C39.1156 41.9316 39.1627 40.8488 39.1706 40.0341C39.1783 39.2043 39.0999 38.4319 38.9352 37.7168C38.7705 37.0017 38.4674 36.4273 38.0261 35.9937C37.5696 35.5452 37.1036 35.3042 36.6281 35.2706C36.1601 35.2295 35.6981 35.441 35.2421 35.9051C34.801 36.354 34.6017 36.8461 34.6441 37.3812C34.6864 37.9013 34.9398 38.4045 35.4042 38.8906L34.1707 40.1461C33.3257 39.271 32.9179 38.3619 32.9473 37.4188C32.9766 36.4606 33.3688 35.5973 34.1238 34.8288C34.9387 33.9995 35.8023 33.577 36.7149 33.5614C37.6349 33.5382 38.4753 33.9004 39.2362 34.648C39.784 35.1862 40.1745 35.8466 40.4077 36.6289C40.6408 37.3963 40.7683 38.172 40.7903 38.9563C40.8122 39.7255 40.794 40.6647 40.7359 41.774L40.6879 42.7361L44.2425 39.1182L45.3268 40.1835L39.877 45.7302L38.9297 44.7995L39.0295 43.2825Z" fill="#9E0A0F"/>
<path d="M45.2352 32.6022C44.1231 31.1296 43.5022 29.794 43.3724 28.5955C43.2447 27.3821 43.7894 26.3157 45.0067 25.3965C46.2239 24.4773 47.3944 24.2484 48.518 24.7098C49.6438 25.1562 50.7627 26.1158 51.8747 27.5884C52.9996 29.078 53.6291 30.4338 53.7633 31.6558C53.8995 32.8628 53.359 33.9259 52.1418 34.8451C50.9245 35.7643 49.7498 35.9965 48.6176 35.5415C47.4875 35.0716 46.3601 34.0919 45.2352 32.6022ZM50.4447 28.6683C49.924 27.9788 49.4369 27.431 48.9832 27.0251C48.5382 26.6127 48.0669 26.3603 47.5696 26.2681C47.0658 26.1674 46.5457 26.3195 46.0094 26.7244C45.4732 27.1294 45.1845 27.588 45.1436 28.1001C45.0961 28.6037 45.2056 29.1292 45.4719 29.6766C45.7468 30.2176 46.1445 30.8328 46.6652 31.5223C47.2052 32.2373 47.7009 32.8053 48.1524 33.2262C48.6039 33.6472 49.0784 33.9037 49.5758 33.996C50.0816 34.0818 50.6027 33.9222 51.139 33.5172C51.6753 33.1123 51.9671 32.658 52.0145 32.1543C52.0704 31.6443 51.9578 31.1145 51.6765 30.565C51.3952 30.0156 50.9846 29.3833 50.4447 28.6683Z" fill="#9E0A0F"/>
<path d="M59.1287 27.2751C59.6037 26.0075 59.9633 24.9851 60.2077 24.2079C60.4562 23.4162 60.6056 22.6543 60.6558 21.9222C60.7061 21.1901 60.583 20.5524 60.2868 20.0093C59.9803 19.4475 59.6045 19.0814 59.1592 18.9112C58.7234 18.7358 58.2198 18.8039 57.6486 19.1155C57.0961 19.4169 56.7624 19.8297 56.6475 20.3541C56.5368 20.8641 56.633 21.4191 56.9361 22.0193L55.391 22.8621C54.8368 21.7792 54.7108 20.7909 55.013 19.897C55.3195 18.9887 55.9456 18.2766 56.8914 17.7607C57.9121 17.2039 58.8613 17.0507 59.7389 17.3009C60.626 17.5461 61.3249 18.1369 61.8357 19.0733C62.2035 19.7475 62.3852 20.4928 62.381 21.3092C62.381 22.1111 62.2776 22.8905 62.0707 23.6473C61.8681 24.3896 61.5778 25.2831 61.1999 26.3276L60.8742 27.2342L65.3269 24.8054L66.0548 26.1398L59.2283 29.8635L58.5924 28.6976L59.1287 27.2751Z" fill="#9E0A0F"/>
<path d="M70.3343 21.8097C70.9848 20.6226 71.4861 19.6617 71.8385 18.9271C72.1971 18.1788 72.4533 17.4459 72.6071 16.7283C72.7609 16.0108 72.7298 15.3622 72.5138 14.7824C72.2903 14.1827 71.9704 13.7669 71.5539 13.5351C71.1474 13.2996 70.6392 13.2954 70.0295 13.5226C69.4398 13.7423 69.0508 14.1036 68.8625 14.6063C68.6804 15.0953 68.6967 15.6584 68.9114 16.2955L67.2622 16.9101C66.8676 15.7594 66.8834 14.7632 67.3096 13.9214C67.7421 13.0659 68.4631 12.45 69.4726 12.0738C70.5621 11.6679 71.5235 11.6512 72.3566 12.0237C73.1998 12.3925 73.8076 13.0766 74.1801 14.0762C74.4482 14.7958 74.5222 15.5594 74.4019 16.3669C74.2879 17.1607 74.0747 17.9174 73.7623 18.6371C73.4562 19.3431 73.0419 20.1862 72.5192 21.1664L72.068 22.0175L76.8208 20.2465L77.3515 21.6708L70.0649 24.386L69.6012 23.1415L70.3343 21.8097Z" fill="#9E0A0F"/>
<path d="M95.8394 11.6417L96.0216 13.1668L89.492 13.9468L89.3098 12.4217L95.8394 11.6417Z" fill="#9E0A0F"/>
<path d="M115.766 18.9363L113.774 14.2066L112.392 14.0349L111.844 18.4489L110.034 18.224L111.405 7.18885L115.216 7.66246C116.063 7.76771 116.759 8.0047 117.304 8.37345C117.86 8.7435 118.25 9.19505 118.474 9.72807C118.709 10.2624 118.788 10.8366 118.711 11.4505C118.622 12.1703 118.329 12.8003 117.832 13.3404C117.346 13.8713 116.657 14.1887 115.762 14.2925L117.925 19.2047L115.766 18.9363ZM112.572 12.59L114.573 12.8386C115.25 12.9228 115.779 12.8166 116.16 12.52C116.551 12.2247 116.783 11.7912 116.854 11.2196C116.925 10.648 116.811 10.1824 116.511 9.82273C116.213 9.45249 115.72 9.22461 115.032 9.1391L113.032 8.89046L112.572 12.59Z" fill="#9E0A0F"/>
<path d="M131.833 18.0016C131.744 18.3202 131.644 18.6023 131.531 18.8478L125.041 17.044C124.904 17.7366 125.004 18.3513 125.342 18.888C125.68 19.4248 126.178 19.7846 126.836 19.9674C127.781 20.2302 128.559 20.0201 129.17 19.3373L131.066 19.8643C130.592 20.574 129.946 21.0863 129.128 21.4014C128.323 21.7091 127.422 21.7243 126.425 21.4473C125.613 21.2216 124.933 20.839 124.386 20.2994C123.851 19.7523 123.49 19.0985 123.303 18.3379C123.129 17.5699 123.164 16.7492 123.406 15.8756C123.649 15.0021 124.037 14.285 124.569 13.7243C125.114 13.1563 125.755 12.781 126.493 12.5984C127.24 12.4186 128.03 12.4444 128.862 12.6757C129.664 12.8985 130.33 13.2718 130.86 13.7954C131.389 14.3191 131.74 14.948 131.913 15.6823C132.088 16.4063 132.061 17.1794 131.833 18.0016ZM130.153 16.9368C130.322 16.2865 130.235 15.7032 129.892 15.187C129.548 14.6708 129.042 14.3199 128.374 14.1342C127.768 13.9657 127.194 14.0167 126.654 14.2873C126.117 14.5476 125.716 14.9952 125.451 15.6301L130.153 16.9368Z" fill="#9E0A0F"/>
<path d="M135.603 19.6208C135.963 18.8119 136.447 18.1692 137.056 17.6929C137.674 17.2208 138.347 16.9421 139.074 16.8568C139.814 16.766 140.536 16.8767 141.237 17.1888C141.871 17.4706 142.365 17.8422 142.72 18.3037C143.089 18.7597 143.333 19.2358 143.451 19.7319L143.971 18.5623L145.652 19.3101L142.069 27.3653L140.388 26.6175L140.921 25.4187C140.47 25.6731 139.944 25.8186 139.344 25.8553C138.744 25.8919 138.132 25.7715 137.508 25.4941C136.816 25.1863 136.261 24.7291 135.842 24.1225C135.427 23.5061 135.19 22.8053 135.131 22.0201C135.086 21.2295 135.243 20.4297 135.603 19.6208ZM142.183 22.5826C142.43 22.0271 142.528 21.4926 142.476 20.9793C142.434 20.4702 142.275 20.0261 142 19.647C141.725 19.2678 141.373 18.9829 140.944 18.7922C140.516 18.6014 140.068 18.5309 139.603 18.5806C139.141 18.6205 138.703 18.7932 138.287 19.0985C137.885 19.3983 137.56 19.826 137.313 20.3816C137.066 20.9371 136.961 21.4743 136.999 21.993C137.047 22.5162 137.206 22.9722 137.476 23.3611C137.761 23.7445 138.113 24.0295 138.532 24.2159C138.961 24.4066 139.408 24.4771 139.874 24.4274C140.34 24.3778 140.776 24.1981 141.182 23.8885C141.602 23.5734 141.936 23.1381 142.183 22.5826Z" fill="#9E0A0F"/>
<path d="M153.698 20.5113L147.589 30.6534L146.027 29.7122L152.136 19.5701L153.698 20.5113Z" fill="#9E0A0F"/>
<path d="M166.986 33.2956L164.758 35.6807L167.564 38.3021L166.548 39.3895L163.742 36.768L161.416 39.2583L164.572 42.2074L163.557 43.2948L159.067 39.1004L166.669 30.9631L171.159 35.1574L170.143 36.2447L166.986 33.2956Z" fill="#9E0A0F"/>
<path d="M168.964 49.6799C168.525 49.1436 168.224 48.5831 168.062 47.9985C167.916 47.4154 167.906 46.8649 168.034 46.347C168.169 45.8224 168.436 45.3828 168.836 45.0284L170.032 46.489C169.763 46.7503 169.631 47.0859 169.636 47.4956C169.656 47.9069 169.821 48.3023 170.132 48.682C170.456 49.0781 170.781 49.3226 171.105 49.4155C171.444 49.5099 171.734 49.4591 171.973 49.2631C172.229 49.0535 172.317 48.7743 172.238 48.4254C172.166 48.0847 171.988 47.5894 171.704 46.9396C171.425 46.3131 171.22 45.7848 171.088 45.3549C170.957 44.9249 170.929 44.4787 171.005 44.0164C171.089 43.5623 171.353 43.1528 171.799 42.7878C172.162 42.4904 172.58 42.3274 173.052 42.2986C173.533 42.2631 174.023 42.3724 174.521 42.6266C175.025 42.889 175.49 43.2802 175.916 43.8001C176.551 44.5758 176.863 45.361 176.853 46.1558C176.857 46.9521 176.534 47.6439 175.884 48.2311L174.729 46.8199C175.014 46.5451 175.156 46.222 175.155 45.8505C175.154 45.479 174.998 45.1034 174.687 44.7238C174.383 44.3525 174.08 44.1252 173.777 44.042C173.475 43.9589 173.208 44.0119 172.977 44.2012C172.795 44.3499 172.697 44.5409 172.681 44.7743C172.665 45.0077 172.698 45.2498 172.779 45.5004C172.869 45.7443 173.012 46.0958 173.209 46.555C173.482 47.1583 173.677 47.6742 173.794 48.1026C173.925 48.5326 173.954 48.9713 173.879 49.4186C173.804 49.8659 173.551 50.2728 173.121 50.6393C172.733 50.957 172.298 51.1335 171.817 51.169C171.336 51.2046 170.847 51.0952 170.349 50.841C169.858 50.5951 169.396 50.2081 168.964 49.6799Z" fill="#9E0A0F"/>
<path d="M181.222 54.0321L177.107 56.6546C176.828 56.8322 176.666 57.0242 176.62 57.2304C176.589 57.4398 176.674 57.702 176.875 58.0168L177.476 58.9614L176.195 59.7782L175.421 58.5638C174.979 57.8711 174.803 57.2372 174.892 56.662C174.981 56.0868 175.39 55.5671 176.118 55.1028L180.234 52.4804L179.675 51.6033L180.93 50.8037L181.489 51.6808L183.337 50.5028L184.326 52.0546L182.477 53.2325L183.629 55.0406L182.375 55.8403L181.222 54.0321Z" fill="#9E0A0F"/>
<path d="M182.176 61.2915C182.977 60.9153 183.764 60.7463 184.536 60.7845C185.313 60.8323 186.004 61.0617 186.609 61.4728C187.228 61.8889 187.701 62.4446 188.028 63.1398C188.322 63.7674 188.453 64.3719 188.42 64.9532C188.4 65.5397 188.273 66.059 188.038 66.5113L189.196 65.9673L189.978 67.6329L181.998 71.3794L181.216 69.7138L182.403 69.1562C181.895 69.053 181.403 68.8189 180.925 68.454C180.447 68.0891 180.063 67.5976 179.773 66.9797C179.451 66.2941 179.331 65.5849 179.411 64.8521C179.5 64.1147 179.78 63.4297 180.249 62.7971C180.732 62.1696 181.374 61.6678 182.176 61.2915ZM185.213 67.8372C185.764 67.5788 186.187 67.2385 186.484 66.8164C186.785 66.404 186.956 65.9644 186.996 65.4978C187.036 65.0311 186.957 64.5854 186.757 64.1605C186.558 63.7357 186.266 63.3897 185.881 63.1225C185.506 62.8508 185.061 62.6942 184.547 62.6529C184.047 62.6167 183.522 62.7277 182.971 62.9861C182.421 63.2445 181.99 63.5822 181.679 63.9992C181.373 64.4258 181.195 64.8747 181.145 65.3459C181.109 65.8222 181.189 66.2679 181.384 66.6831C181.583 67.108 181.875 67.454 182.26 67.7212C182.645 67.9884 183.092 68.1378 183.602 68.1695C184.126 68.2063 184.663 68.0955 185.213 67.8372Z" fill="#9E0A0F"/>
<path d="M191.081 75.5116L186.435 77.0026C186.12 77.1037 185.914 77.2481 185.818 77.4359C185.734 77.6306 185.75 77.9057 185.864 78.2612L186.206 79.3276L184.759 79.7921L184.319 78.4209C184.068 77.6389 184.058 76.981 184.29 76.4472C184.522 75.9135 185.05 75.5146 185.872 75.2506L190.519 73.7596L190.201 72.7693L191.618 72.3146L191.936 73.3049L194.023 72.6351L194.585 74.3871L192.498 75.0569L193.153 77.0984L191.736 77.553L191.081 75.5116Z" fill="#9E0A0F"/>
<path d="M191.928 91.2793C191.603 91.3407 191.305 91.3753 191.035 91.3829L189.784 84.7641C189.102 84.9473 188.595 85.3092 188.263 85.8496C187.931 86.39 187.829 86.9956 187.955 87.6664C188.138 88.6306 188.67 89.2356 189.552 89.4813L189.918 91.4151C189.072 91.3036 188.327 90.9506 187.682 90.356C187.05 89.7698 186.638 88.9684 186.446 87.9518C186.29 87.1238 186.332 86.3449 186.574 85.6153C186.829 84.8941 187.256 84.2815 187.855 83.7773C188.467 83.2817 189.218 82.9496 190.109 82.7812C191 82.6128 191.815 82.6433 192.553 82.8728C193.304 83.1109 193.924 83.5201 194.413 84.1006C194.905 84.6915 195.231 85.4115 195.392 86.2604C195.546 87.0779 195.506 87.8401 195.27 88.5468C195.035 89.2535 194.626 89.8465 194.043 90.3257C193.471 90.8029 192.766 91.1208 191.928 91.2793ZM192.14 89.3015C192.798 89.1661 193.283 88.8302 193.594 88.2938C193.905 87.7573 193.996 87.1484 193.868 86.4672C193.751 85.8488 193.451 85.3572 192.97 84.9923C192.499 84.6254 191.92 84.4634 191.233 84.5064L192.14 89.3015Z" fill="#9E0A0F"/>
<path d="M187.669 107.91C187.707 107.164 187.869 106.5 188.155 105.916C188.452 105.333 188.848 104.883 189.345 104.567C189.842 104.251 190.41 104.109 191.049 104.141L190.95 106.091C190.468 106.109 190.064 106.275 189.739 106.59C189.412 106.915 189.234 107.381 189.203 107.988C189.171 108.617 189.295 109.114 189.575 109.481C189.866 109.848 190.251 110.044 190.731 110.069C191.104 110.088 191.413 109.991 191.659 109.779C191.904 109.578 192.099 109.316 192.244 108.992C192.388 108.679 192.549 108.239 192.727 107.671C192.956 106.957 193.178 106.375 193.393 105.927C193.618 105.49 193.947 105.122 194.379 104.824C194.81 104.525 195.372 104.394 196.065 104.429C196.704 104.461 197.255 104.65 197.718 104.994C198.181 105.338 198.526 105.804 198.752 106.392C198.979 106.98 199.073 107.653 199.034 108.409C198.979 109.485 198.663 110.35 198.085 111.004C197.517 111.669 196.762 112.016 195.821 112.042L195.924 110.029C196.33 110.018 196.686 109.843 196.992 109.507C197.297 109.17 197.465 108.714 197.494 108.138C197.52 107.616 197.409 107.184 197.16 106.84C196.91 106.496 196.535 106.311 196.034 106.286C195.693 106.268 195.406 106.355 195.172 106.546C194.948 106.748 194.764 107.006 194.62 107.319C194.476 107.632 194.315 108.062 194.138 108.608C193.898 109.333 193.665 109.919 193.439 110.367C193.213 110.825 192.879 111.203 192.436 111.501C192.004 111.81 191.436 111.947 190.733 111.911C190.168 111.882 189.644 111.701 189.159 111.366C188.673 111.042 188.291 110.58 188.012 109.978C187.743 109.388 187.629 108.698 187.669 107.91Z" fill="#9E0A0F"/>
<path d="M196.539 119.011C196.595 118.685 196.752 118.431 197.011 118.248C197.269 118.065 197.562 118.001 197.887 118.057C198.213 118.113 198.468 118.27 198.651 118.529C198.834 118.788 198.897 119.08 198.841 119.406C198.787 119.721 198.631 119.97 198.372 120.153C198.114 120.336 197.821 120.4 197.495 120.344C197.169 120.288 196.915 120.131 196.732 119.872C196.549 119.613 196.485 119.326 196.539 119.011ZM195.236 119.697L186.547 118.207L186.855 116.409L195.544 117.899L195.236 119.697Z" fill="#9E0A0F"/>
<path d="M192.578 131.077C192.377 131.741 192.06 132.291 191.627 132.729C191.191 133.176 190.658 133.467 190.027 133.599C189.397 133.732 188.698 133.682 187.933 133.451L182.955 131.947L183.478 130.216L188.195 131.641C188.951 131.87 189.585 131.855 190.097 131.598C190.62 131.343 190.98 130.889 191.177 130.236C191.375 129.583 191.328 129 191.037 128.489C190.753 127.991 190.233 127.627 189.477 127.399L184.76 125.973L185.288 124.227L193.727 126.778L193.199 128.524L192.234 128.232C192.495 128.623 192.656 129.067 192.717 129.565C192.775 130.073 192.729 130.577 192.578 131.077Z" fill="#9E0A0F"/>
<path d="M185.342 137.804C186.162 138.191 186.803 138.694 187.266 139.314C187.734 139.947 187.997 140.638 188.057 141.386C188.117 142.133 187.968 142.888 187.608 143.65C187.153 144.615 186.546 145.302 185.787 145.71C185.033 146.133 184.179 146.255 183.226 146.076L184.065 144.296C184.529 144.338 184.947 144.253 185.319 144.039C185.691 143.825 185.991 143.477 186.219 142.995C186.537 142.32 186.551 141.666 186.26 141.033C185.974 140.414 185.402 139.903 184.543 139.497C183.685 139.092 182.921 138.974 182.252 139.142C181.578 139.319 181.082 139.746 180.764 140.421C180.313 141.376 180.434 142.206 181.128 142.91L180.288 144.69C179.587 144.076 179.146 143.337 178.964 142.473C178.792 141.613 178.928 140.711 179.375 139.765C179.734 139.003 180.222 138.408 180.837 137.978C181.462 137.554 182.163 137.318 182.939 137.272C183.721 137.24 184.522 137.417 185.342 137.804Z" fill="#9E0A0F"/>
<path d="M174.936 156.527C174.66 156.345 174.422 156.162 174.223 155.98L177.935 150.359C177.318 150.015 176.702 149.922 176.087 150.078C175.473 150.235 174.977 150.598 174.601 151.168C174.06 151.987 174.021 152.792 174.483 153.582L173.399 155.225C172.869 154.556 172.58 153.783 172.532 152.908C172.487 152.047 172.749 151.185 173.319 150.321C173.784 149.618 174.357 149.089 175.039 148.734C175.723 148.394 176.457 148.251 177.238 148.307C178.022 148.378 178.793 148.663 179.549 149.162C180.306 149.662 180.869 150.251 181.239 150.93C181.612 151.623 181.772 152.349 181.719 153.107C181.66 153.873 181.393 154.617 180.917 155.338C180.458 156.032 179.898 156.551 179.237 156.894C178.576 157.237 177.87 157.378 177.118 157.316C176.375 157.26 175.648 156.997 174.936 156.527ZM176.465 155.256C177.032 155.617 177.614 155.713 178.211 155.545C178.807 155.377 179.297 155.003 179.679 154.425C180.026 153.9 180.153 153.338 180.062 152.741C179.98 152.15 179.677 151.631 179.154 151.183L176.465 155.256Z" fill="#9E0A0F"/>
<path d="M164.183 165.42C164.036 166.765 163.941 167.845 163.896 168.658C163.851 169.487 163.895 170.262 164.028 170.984C164.16 171.706 164.437 172.293 164.859 172.746C165.295 173.215 165.749 173.476 166.223 173.531C166.689 173.593 167.16 173.402 167.636 172.959C168.097 172.53 168.318 172.048 168.299 171.511C168.28 170.99 168.05 170.476 167.608 169.969L168.896 168.77C169.701 169.682 170.068 170.609 169.996 171.55C169.924 172.506 169.494 173.351 168.705 174.084C167.854 174.876 166.972 175.26 166.06 175.235C165.14 175.217 164.316 174.817 163.59 174.036C163.066 173.474 162.706 172.797 162.508 172.005C162.309 171.228 162.217 170.447 162.23 169.663C162.242 168.893 162.303 167.956 162.41 166.85L162.501 165.891L158.788 169.346L157.753 168.234L163.446 162.936L164.35 163.909L164.183 165.42Z" fill="#9E0A0F"/>
<path d="M157.505 175.811C158.55 177.332 159.111 178.694 159.187 179.897C159.26 181.115 158.668 182.156 157.411 183.02C156.154 183.884 154.974 184.06 153.872 183.549C152.768 183.053 151.693 182.044 150.648 180.523C149.591 178.984 149.022 177.602 148.943 176.375C148.861 175.163 149.449 174.125 150.706 173.262C151.963 172.398 153.147 172.218 154.258 172.724C155.366 173.244 156.448 174.273 157.505 175.811ZM152.125 179.508C152.614 180.22 153.076 180.789 153.511 181.215C153.937 181.647 154.397 181.92 154.889 182.035C155.388 182.158 155.915 182.029 156.468 181.649C157.022 181.268 157.331 180.823 157.395 180.313C157.465 179.812 157.379 179.282 157.138 178.723C156.887 178.171 156.517 177.538 156.028 176.826C155.521 176.088 155.051 175.498 154.619 175.057C154.186 174.617 153.724 174.339 153.231 174.225C152.73 174.116 152.202 174.252 151.648 174.633C151.094 175.014 150.782 175.454 150.712 175.955C150.634 176.462 150.723 176.997 150.979 177.558C151.235 178.12 151.617 178.77 152.125 179.508Z" fill="#9E0A0F"/>
<path d="M143.387 180.511C142.856 181.756 142.451 182.762 142.172 183.527C141.888 184.307 141.705 185.061 141.622 185.79C141.539 186.52 141.633 187.162 141.905 187.718C142.186 188.293 142.545 188.675 142.982 188.865C143.41 189.06 143.916 189.015 144.5 188.729C145.066 188.453 145.417 188.055 145.556 187.536C145.689 187.032 145.618 186.473 145.342 185.86L146.923 185.087C147.428 186.194 147.51 187.187 147.168 188.066C146.821 188.96 146.164 189.643 145.196 190.116C144.151 190.627 143.196 190.737 142.331 190.448C141.456 190.163 140.784 189.542 140.315 188.584C139.978 187.894 139.83 187.141 139.871 186.326C139.907 185.524 140.045 184.751 140.285 184.004C140.521 183.271 140.851 182.392 141.275 181.365L141.641 180.474L137.084 182.701L136.417 181.335L143.403 177.921L143.986 179.114L143.387 180.511Z" fill="#9E0A0F"/>
<path d="M131.948 185.47C131.245 186.626 130.701 187.564 130.316 188.282C129.924 189.013 129.636 189.734 129.45 190.444C129.264 191.154 129.266 191.803 129.456 192.392C129.652 193.001 129.953 193.431 130.359 193.681C130.755 193.935 131.262 193.962 131.881 193.762C132.48 193.569 132.885 193.225 133.096 192.732C133.3 192.251 133.308 191.688 133.123 191.042L134.798 190.502C135.14 191.669 135.08 192.664 134.616 193.485C134.146 194.321 133.398 194.904 132.373 195.234C131.266 195.591 130.305 195.565 129.489 195.155C128.664 194.749 128.087 194.038 127.76 193.023C127.524 192.292 127.484 191.526 127.641 190.725C127.79 189.937 128.037 189.191 128.381 188.486C128.719 187.794 129.17 186.97 129.736 186.014L130.225 185.184L125.398 186.741L124.932 185.294L132.332 182.908L132.74 184.172L131.948 185.47Z" fill="#9E0A0F"/>
<path d="M106.013 194.486L105.899 192.954L112.457 192.467L112.571 193.999L106.013 194.486Z" fill="#9E0A0F"/>
</svg>
